<?xml version="1.0" encoding="UTF-8" standalone="no"?>
<svg
        xmlns:dc="http://purl.org/dc/elements/1.1/"
        xmlns:cc="http://creativecommons.org/ns#"
        xmlns:rdf="http://www.w3.org/1999/02/22-rdf-syntax-ns#"
        xmlns:sodipodi="http://sodipodi.sourceforge.net/DTD/sodipodi-0.dtd"
        xmlns:inkscape="http://www.inkscape.org/namespaces/inkscape"
        xmlns="http://www.w3.org/2000/svg"
        version="1"
        width="200"
        height="200"
        viewBox="0 0 150.00003 150.00003"
        id="svg4"
        sodipodi:docname="ep.svg"
        inkscape:version="0.92.3 (2405546, 2018-03-11)"
        inkscape:export-filename="C:\Users\etienne\git\atnpgo.github.io\img\icons\ep.png"
        inkscape:export-xdpi="210.66"
        inkscape:export-ydpi="210.66">
    <metadata
            id="metadata10">
        <rdf:RDF>
            <cc:Work
                    rdf:about="">
                <dc:format>image/svg+xml</dc:format>
                <dc:type
                        rdf:resource="http://purl.org/dc/dcmitype/StillImage"/>
                <dc:title></dc:title>
            </cc:Work>
        </rdf:RDF>
    </metadata>
    <defs
            id="defs8"/>
    <sodipodi:namedview
            pagecolor="#ffffff"
            bordercolor="#666666"
            borderopacity="1"
            objecttolerance="10"
            gridtolerance="10"
            guidetolerance="10"
            inkscape:pageopacity="0"
            inkscape:pageshadow="2"
            inkscape:window-width="1600"
            inkscape:window-height="837"
            id="namedview6"
            showgrid="false"
            fit-margin-top="65.32954"
            fit-margin-left="54.42946"
            fit-margin-right="54.42946"
            fit-margin-bottom="65.32954"
            inkscape:zoom="1.5404052"
            inkscape:cx="-147.16225"
            inkscape:cy="203.07631"
            inkscape:window-x="-8"
            inkscape:window-y="-8"
            inkscape:window-maximized="1"
            inkscape:current-layer="svg4"/>
    <path
            d="m 40.822103,75.000025 v 26.002845 h 44.90407 V 83.751395 l 3.10286,-0.0273 c 3.35415,-0.0219 3.90589,-0.0601 5.88342,-0.39878 7.057907,-1.2182 11.848767,-5.22242 13.651487,-11.41722 0.55174,-1.90651 0.80849,-3.89496 0.81395,-6.27673 0.005,-3.32683 -0.53535,-5.86703 -1.76994,-8.276119 -1.0707,-2.10317 -2.75324,-3.94959 -4.80179,-5.27158 -1.03792,-0.66646 -2.720457,-1.436711 -4.042447,-1.846421 -1.77541,-0.55174 -3.08648,-0.80303 -5.57204,-1.08709 l -1.06525,-0.12019 -25.54943,-0.0164 -25.55489,-0.0164 z m 30.86472,-0.0819 v 14.61294 h -16.82537 v -9.77838 h 15.56893 v -11.308 h -15.56893 v -8.13955 h 16.82537 z m 19.41473,-14.42721 c 0.57359,0.11472 1.01608,0.24582 1.01608,0.30045 0,0.0219 0.1311,0.0983 0.28952,0.17481 1.23459,0.56267 1.99938,1.51865 2.37085,2.94444 0.2786,1.07071 0.22397,2.8188 -0.12018,4.00422 -0.36055,1.24005 -1.1745,2.40909 -2.1578,3.10286 -0.18027,0.12564 -0.36055,0.28406 -0.40425,0.34962 -0.15842,0.24582 -1.48041,0.69923 -2.44186,0.84126 -0.22397,0.0382 -1.19635,0.0765 -2.16326,0.0983 l -1.76448,0.0328 v -11.99081 l 2.47464,0.0273 c 1.95021,0.0219 2.56204,0.0437 2.90074,0.11472 z"
            id="path2"
            inkscape:connector-curvature="0"
            style="stroke-width:0.05462782"
            inkscape:export-xdpi="96"
            inkscape:export-ydpi="96"/>
</svg>
