<?xml version="1.0" standalone="no"?>
<!DOCTYPE svg PUBLIC "-//W3C//DTD SVG 20010904//EN"
 "http://www.w3.org/TR/2001/REC-SVG-20010904/DTD/svg10.dtd">
<svg version="1.0" xmlns="http://www.w3.org/2000/svg"
 width="512.000000pt" height="512.000000pt" viewBox="0 0 512.000000 512.000000"
 preserveAspectRatio="xMidYMid meet">
<metadata>
Created by potrace 1.11, written by Peter Selinger 2001-2013
</metadata>
<g transform="translate(0.000000,512.000000) scale(0.100000,-0.100000)"
fill="#000000" stroke="none">
<path d="M0 2560 l0 -2560 2560 0 2560 0 0 2560 0 2560 -2560 0 -2560 0 0
-2560z m2640 2220 c102 -19 148 -77 174 -221 13 -71 646 -4209 646 -4224 0 -3
-111 -5 -248 -5 l-247 0 -200 1530 c-110 841 -202 1530 -205 1530 -3 0 -95
-689 -205 -1530 l-200 -1530 -247 0 c-137 0 -248 2 -248 5 0 3 146 971 325
2152 179 1182 331 2183 337 2226 l11 77 127 0 c70 0 151 -5 180 -10z"/>
</g>
</svg>
